<?xml version="1.0" encoding="UTF-8" standalone="no"?>
<!-- Created with Inkscape (http://www.inkscape.org/) -->

<svg
   xmlns:dc="http://purl.org/dc/elements/1.1/"
   xmlns:cc="http://creativecommons.org/ns#"
   xmlns:rdf="http://www.w3.org/1999/02/22-rdf-syntax-ns#"
   xmlns:svg="http://www.w3.org/2000/svg"
   xmlns="http://www.w3.org/2000/svg"
   xmlns:xlink="http://www.w3.org/1999/xlink"
   xmlns:sodipodi="http://sodipodi.sourceforge.net/DTD/sodipodi-0.dtd"
   xmlns:inkscape="http://www.inkscape.org/namespaces/inkscape"
   width="124.80786mm"
   height="73.844398mm"
   viewBox="0 0 124.80786 73.844398"
   version="1.1"
   id="svg8"
   inkscape:version="0.92.1 r15371"
   sodipodi:docname="ivermore.svg">
  <defs
     id="defs2" />
  <sodipodi:namedview
     id="base"
     pagecolor="#ffffff"
     bordercolor="#666666"
     borderopacity="1.0"
     inkscape:pageopacity="0.0"
     inkscape:pageshadow="2"
     inkscape:zoom="0.49497475"
     inkscape:cx="356.05675"
     inkscape:cy="80.774216"
     inkscape:document-units="mm"
     inkscape:current-layer="layer1"
     showgrid="false"
     inkscape:object-paths="false"
     inkscape:snap-text-baseline="false"
     inkscape:snap-to-guides="false"
     inkscape:window-width="958"
     inkscape:window-height="1018"
     inkscape:window-x="1913"
     inkscape:window-y="0"
     inkscape:window-maximized="0"
     inkscape:snap-smooth-nodes="false"
     inkscape:pagecheckerboard="true"
     fit-margin-top="0"
     fit-margin-left="0"
     fit-margin-right="0"
     fit-margin-bottom="0" />
  <metadata
     id="metadata5">
    <rdf:RDF>
      <cc:Work
         rdf:about="">
        <dc:format>image/svg+xml</dc:format>
        <dc:type
           rdf:resource="http://purl.org/dc/dcmitype/StillImage" />
        <dc:title></dc:title>
      </cc:Work>
    </rdf:RDF>
  </metadata>
  <g
     inkscape:label="Layer 1"
     inkscape:groupmode="layer"
     id="layer1"
     transform="translate(2.0821667,0.40901568)">
    <rect
       style="fill:#0066ff;fill-opacity:1;stroke-width:0.24842122"
       id="rect10"
       width="122.40944"
       height="73.23185"
       x="-0.13704915"
       y="0.20353469" />
    <g
       aria-label="I U"
       style="font-style:normal;font-weight:normal;font-size:10.58333302px;line-height:1.25;font-family:sans-serif;letter-spacing:0px;word-spacing:0px;fill:#000000;fill-opacity:1;stroke:none;stroke-width:0.26458332"
       id="text827"
       transform="translate(-30.468726,-37.946901)">
      <path
         d="m 81.382992,99.411128 -21.118436,2.049832 3.548448,-2.652724 1.705323,-19.258084 -6.046143,-4.633654 20.791152,1.739773 -7.73424,2.222087 3.496772,17.139351 z"
         style="font-style:normal;font-variant:normal;font-weight:normal;font-stretch:normal;font-size:35.27777863px;font-family:'Snap ITC';-inkscape-font-specification:'Snap ITC';stroke-width:0.26458332"
         id="path829"
         inkscape:connector-curvature="0" />
      <path
         d="m 123.49928,75.588292 -6.11504,3.358968 q 2.7733,1.894803 4.22024,4.444173 1.46417,2.549371 1.46417,5.460477 0,1.498616 -0.43064,2.876655 -0.43064,1.360812 -1.29191,2.566596 -2.17041,3.014458 -5.87389,4.823134 -3.70348,1.808675 -7.71701,1.808675 -2.41157,0 -4.70256,-0.981852 -2.29099,-0.981853 -4.116887,-2.790528 -1.791449,-1.825901 -2.773302,-4.099664 -0.964626,-2.273763 -0.964626,-4.650879 0,-3.186713 1.877577,-5.942789 1.877577,-2.756077 5.718858,-5.202095 l -7.131347,-0.930176 14.641657,-1.963704 q -2.54937,1.929253 -3.94464,4.15134 -1.37803,2.204861 -1.37803,4.30637 0,2.067057 1.37803,3.445095 1.39527,1.360813 3.47955,1.360813 1.91203,0 3.16949,-1.429715 1.27468,-1.44694 1.27468,-3.61735 0,-1.498617 -0.62011,-2.807753 -0.60289,-1.309136 -1.80868,-2.411567 z"
         style="font-style:normal;font-variant:normal;font-weight:normal;font-stretch:normal;font-size:35.27777863px;font-family:'Snap ITC';-inkscape-font-specification:'Snap ITC';stroke-width:0.26458332"
         id="path831"
         inkscape:connector-curvature="0" />
    </g>
    <text
       xml:space="preserve"
       style="font-style:normal;font-weight:normal;font-size:22.09096146px;line-height:1.25;font-family:sans-serif;letter-spacing:0px;word-spacing:0px;fill:#000000;fill-opacity:1;stroke:none;stroke-width:0.44970658"
       id="text857"
       transform="matrix(0.78439393,0,0,1.4154706,-10.155085,-47.658777)"><textPath
         xlink:href="#path871"
         id="textPath883"
         style="font-style:normal;font-variant:normal;font-weight:normal;font-stretch:normal;font-family:Pristina;-inkscape-font-specification:Pristina;stroke-width:0.44970658">I<tspan
   style="line-height:0"
   id="tspan886">lvermorny Unversity</tspan></textPath></text>
    <path
       style="fill:none;stroke:none;stroke-width:0.33682328px;stroke-linecap:butt;stroke-linejoin:miter;stroke-opacity:1"
       d="M 16.227854,69.178328 C 96.858326,22.694671 162.7257,67.139571 162.7257,67.139571"
       id="path871"
       inkscape:connector-curvature="0" />
  </g>
</svg>
